<mxfile host="app.diagrams.net" modified="2023-12-28T20:57:51.280Z" agent="Mozilla/5.0 (Windows NT 10.0; Win64; x64) AppleWebKit/537.36 (KHTML, like Gecko) Chrome/120.0.0.0 Safari/537.36 Edg/120.0.0.0" etag="lPCpSxtE47Qg8r6dpten" version="22.1.15" type="device">
  <diagram name="Strona-1" id="CRbKr-kAui00phHniL13">
    <mxGraphModel dx="956" dy="523" grid="1" gridSize="10" guides="1" tooltips="1" connect="1" arrows="1" fold="1" page="1" pageScale="1" pageWidth="827" pageHeight="1169" math="0" shadow="0">
      <root>
        <mxCell id="0" />
        <mxCell id="1" parent="0" />
        <mxCell id="q5gdYGpSEoozQd5RKPLv-1" value="Klient" style="html=1;whiteSpace=wrap;fillColor=#fff2cc;strokeColor=#d6b656;" vertex="1" parent="1">
          <mxGeometry x="100" y="30" width="100" height="30" as="geometry" />
        </mxCell>
        <mxCell id="q5gdYGpSEoozQd5RKPLv-2" value="" style="endArrow=none;dashed=1;html=1;rounded=0;entryX=0.5;entryY=1;entryDx=0;entryDy=0;" edge="1" parent="1" target="q5gdYGpSEoozQd5RKPLv-1">
          <mxGeometry width="50" height="50" relative="1" as="geometry">
            <mxPoint x="150" y="560" as="sourcePoint" />
            <mxPoint x="360" y="190" as="targetPoint" />
          </mxGeometry>
        </mxCell>
        <mxCell id="q5gdYGpSEoozQd5RKPLv-3" value="Serwer" style="html=1;whiteSpace=wrap;fillColor=#e1d5e7;strokeColor=#9673a6;" vertex="1" parent="1">
          <mxGeometry x="330" y="30" width="100" height="30" as="geometry" />
        </mxCell>
        <mxCell id="q5gdYGpSEoozQd5RKPLv-4" value="" style="endArrow=none;dashed=1;html=1;rounded=0;entryX=0.5;entryY=1;entryDx=0;entryDy=0;" edge="1" parent="1" target="q5gdYGpSEoozQd5RKPLv-3" source="q5gdYGpSEoozQd5RKPLv-6">
          <mxGeometry width="50" height="50" relative="1" as="geometry">
            <mxPoint x="380" y="410" as="sourcePoint" />
            <mxPoint x="590" y="190" as="targetPoint" />
          </mxGeometry>
        </mxCell>
        <mxCell id="q5gdYGpSEoozQd5RKPLv-5" value="POST /api/v1/user/identity/login&lt;br&gt;{ usernameOrEmail, password }" style="html=1;verticalAlign=bottom;endArrow=block;curved=0;rounded=0;" edge="1" parent="1" target="q5gdYGpSEoozQd5RKPLv-6">
          <mxGeometry width="80" relative="1" as="geometry">
            <mxPoint x="150" y="110" as="sourcePoint" />
            <mxPoint x="370" y="110" as="targetPoint" />
          </mxGeometry>
        </mxCell>
        <mxCell id="q5gdYGpSEoozQd5RKPLv-7" value="" style="endArrow=none;dashed=1;html=1;rounded=0;entryX=0.5;entryY=1;entryDx=0;entryDy=0;" edge="1" parent="1" source="q5gdYGpSEoozQd5RKPLv-19" target="q5gdYGpSEoozQd5RKPLv-6">
          <mxGeometry width="50" height="50" relative="1" as="geometry">
            <mxPoint x="380" y="410" as="sourcePoint" />
            <mxPoint x="380" y="70" as="targetPoint" />
          </mxGeometry>
        </mxCell>
        <mxCell id="q5gdYGpSEoozQd5RKPLv-6" value="" style="html=1;points=[[0,0,0,0,5],[0,1,0,0,-5],[1,0,0,0,5],[1,1,0,0,-5]];perimeter=orthogonalPerimeter;outlineConnect=0;targetShapes=umlLifeline;portConstraint=eastwest;newEdgeStyle={&quot;curved&quot;:0,&quot;rounded&quot;:0};fillColor=#e1d5e7;strokeColor=#9673a6;" vertex="1" parent="1">
          <mxGeometry x="375" y="80" width="10" height="220" as="geometry" />
        </mxCell>
        <mxCell id="q5gdYGpSEoozQd5RKPLv-8" value="" style="html=1;points=[[0,0,0,0,5],[0,1,0,0,-5],[1,0,0,0,5],[1,1,0,0,-5]];perimeter=orthogonalPerimeter;outlineConnect=0;targetShapes=umlLifeline;portConstraint=eastwest;newEdgeStyle={&quot;curved&quot;:0,&quot;rounded&quot;:0};" vertex="1" parent="1">
          <mxGeometry x="380" y="110" width="10" height="40" as="geometry" />
        </mxCell>
        <mxCell id="q5gdYGpSEoozQd5RKPLv-9" value="Sprawdzenie poprawności&lt;br&gt;danych logowania" style="html=1;align=left;spacingLeft=2;endArrow=block;rounded=0;edgeStyle=orthogonalEdgeStyle;curved=0;rounded=0;" edge="1" target="q5gdYGpSEoozQd5RKPLv-8" parent="1">
          <mxGeometry relative="1" as="geometry">
            <mxPoint x="385" y="90" as="sourcePoint" />
            <Array as="points">
              <mxPoint x="415" y="120" />
            </Array>
          </mxGeometry>
        </mxCell>
        <mxCell id="q5gdYGpSEoozQd5RKPLv-10" value="" style="html=1;points=[[0,0,0,0,5],[0,1,0,0,-5],[1,0,0,0,5],[1,1,0,0,-5]];perimeter=orthogonalPerimeter;outlineConnect=0;targetShapes=umlLifeline;portConstraint=eastwest;newEdgeStyle={&quot;curved&quot;:0,&quot;rounded&quot;:0};" vertex="1" parent="1">
          <mxGeometry x="380" y="180" width="10" height="40" as="geometry" />
        </mxCell>
        <mxCell id="q5gdYGpSEoozQd5RKPLv-11" value="Generacja &lt;i&gt;access token&lt;/i&gt;&lt;br&gt;i &lt;i&gt;refresh token&lt;/i&gt;" style="html=1;align=left;spacingLeft=2;endArrow=block;rounded=0;edgeStyle=orthogonalEdgeStyle;curved=0;rounded=0;" edge="1" target="q5gdYGpSEoozQd5RKPLv-10" parent="1">
          <mxGeometry relative="1" as="geometry">
            <mxPoint x="385" y="160" as="sourcePoint" />
            <Array as="points">
              <mxPoint x="415" y="190" />
            </Array>
          </mxGeometry>
        </mxCell>
        <mxCell id="q5gdYGpSEoozQd5RKPLv-12" value="Zwrócenie danych użytkownika&lt;br&gt;oraz tokenów" style="html=1;verticalAlign=bottom;endArrow=open;dashed=1;endSize=8;curved=0;rounded=0;" edge="1" parent="1">
          <mxGeometry x="-0.0008" relative="1" as="geometry">
            <mxPoint x="375" y="280" as="sourcePoint" />
            <mxPoint x="150" y="280" as="targetPoint" />
            <mxPoint as="offset" />
          </mxGeometry>
        </mxCell>
        <mxCell id="q5gdYGpSEoozQd5RKPLv-15" value="Logowanie" style="shape=umlFrame;whiteSpace=wrap;html=1;pointerEvents=0;width=70;height=30;fillColor=#d5e8d4;strokeColor=#82b366;" vertex="1" parent="1">
          <mxGeometry x="50" y="70" width="540" height="240" as="geometry" />
        </mxCell>
        <mxCell id="q5gdYGpSEoozQd5RKPLv-16" value="" style="html=1;points=[[0,0,0,0,5],[0,1,0,0,-5],[1,0,0,0,5],[1,1,0,0,-5]];perimeter=orthogonalPerimeter;outlineConnect=0;targetShapes=umlLifeline;portConstraint=eastwest;newEdgeStyle={&quot;curved&quot;:0,&quot;rounded&quot;:0};" vertex="1" parent="1">
          <mxGeometry x="380" y="250" width="10" height="40" as="geometry" />
        </mxCell>
        <mxCell id="q5gdYGpSEoozQd5RKPLv-17" value="Zapis &lt;i&gt;refresh token&lt;/i&gt;&amp;nbsp;w tabeli&lt;br&gt;&lt;i&gt;refresh_tokens&lt;/i&gt;" style="html=1;align=left;spacingLeft=2;endArrow=block;rounded=0;edgeStyle=orthogonalEdgeStyle;curved=0;rounded=0;" edge="1" target="q5gdYGpSEoozQd5RKPLv-16" parent="1">
          <mxGeometry relative="1" as="geometry">
            <mxPoint x="385" y="230" as="sourcePoint" />
            <Array as="points">
              <mxPoint x="415" y="260" />
            </Array>
          </mxGeometry>
        </mxCell>
        <mxCell id="q5gdYGpSEoozQd5RKPLv-18" value="DELETE /api/v1/user/identity/logout&lt;br&gt;nagłówek: Authorization: &lt;i&gt;access token&lt;/i&gt;&lt;br&gt;nagłówek X-refresh-token: &lt;i&gt;refresh token&lt;/i&gt;" style="html=1;verticalAlign=bottom;endArrow=block;curved=0;rounded=0;" edge="1" parent="1">
          <mxGeometry width="80" relative="1" as="geometry">
            <mxPoint x="150" y="370" as="sourcePoint" />
            <mxPoint x="375" y="370" as="targetPoint" />
          </mxGeometry>
        </mxCell>
        <mxCell id="q5gdYGpSEoozQd5RKPLv-20" value="" style="endArrow=none;dashed=1;html=1;rounded=0;entryX=0.5;entryY=1;entryDx=0;entryDy=0;" edge="1" parent="1" target="q5gdYGpSEoozQd5RKPLv-19">
          <mxGeometry width="50" height="50" relative="1" as="geometry">
            <mxPoint x="380" y="410" as="sourcePoint" />
            <mxPoint x="380" y="300" as="targetPoint" />
          </mxGeometry>
        </mxCell>
        <mxCell id="q5gdYGpSEoozQd5RKPLv-19" value="" style="html=1;points=[[0,0,0,0,5],[0,1,0,0,-5],[1,0,0,0,5],[1,1,0,0,-5]];perimeter=orthogonalPerimeter;outlineConnect=0;targetShapes=umlLifeline;portConstraint=eastwest;newEdgeStyle={&quot;curved&quot;:0,&quot;rounded&quot;:0};fillColor=#e1d5e7;strokeColor=#9673a6;" vertex="1" parent="1">
          <mxGeometry x="375" y="330" width="10" height="230" as="geometry" />
        </mxCell>
        <mxCell id="q5gdYGpSEoozQd5RKPLv-21" value="" style="html=1;points=[[0,0,0,0,5],[0,1,0,0,-5],[1,0,0,0,5],[1,1,0,0,-5]];perimeter=orthogonalPerimeter;outlineConnect=0;targetShapes=umlLifeline;portConstraint=eastwest;newEdgeStyle={&quot;curved&quot;:0,&quot;rounded&quot;:0};" vertex="1" parent="1">
          <mxGeometry x="380" y="370" width="10" height="40" as="geometry" />
        </mxCell>
        <mxCell id="q5gdYGpSEoozQd5RKPLv-22" value="Sprawdzenie poprawności&lt;br&gt;tokenów oraz danych użytkownika" style="html=1;align=left;spacingLeft=2;endArrow=block;rounded=0;edgeStyle=orthogonalEdgeStyle;curved=0;rounded=0;" edge="1" target="q5gdYGpSEoozQd5RKPLv-21" parent="1">
          <mxGeometry relative="1" as="geometry">
            <mxPoint x="385" y="350" as="sourcePoint" />
            <Array as="points">
              <mxPoint x="415" y="380" />
            </Array>
          </mxGeometry>
        </mxCell>
        <mxCell id="q5gdYGpSEoozQd5RKPLv-23" value="" style="html=1;points=[[0,0,0,0,5],[0,1,0,0,-5],[1,0,0,0,5],[1,1,0,0,-5]];perimeter=orthogonalPerimeter;outlineConnect=0;targetShapes=umlLifeline;portConstraint=eastwest;newEdgeStyle={&quot;curved&quot;:0,&quot;rounded&quot;:0};" vertex="1" parent="1">
          <mxGeometry x="380" y="440" width="10" height="40" as="geometry" />
        </mxCell>
        <mxCell id="q5gdYGpSEoozQd5RKPLv-24" value="Dodanie &lt;i&gt;access token&lt;/i&gt; do tabeli&lt;br&gt;&lt;i&gt;blacklist_jwts&lt;/i&gt;&amp;nbsp;" style="html=1;align=left;spacingLeft=2;endArrow=block;rounded=0;edgeStyle=orthogonalEdgeStyle;curved=0;rounded=0;" edge="1" target="q5gdYGpSEoozQd5RKPLv-23" parent="1">
          <mxGeometry relative="1" as="geometry">
            <mxPoint x="385" y="420" as="sourcePoint" />
            <Array as="points">
              <mxPoint x="415" y="450" />
            </Array>
          </mxGeometry>
        </mxCell>
        <mxCell id="q5gdYGpSEoozQd5RKPLv-25" value="" style="html=1;points=[[0,0,0,0,5],[0,1,0,0,-5],[1,0,0,0,5],[1,1,0,0,-5]];perimeter=orthogonalPerimeter;outlineConnect=0;targetShapes=umlLifeline;portConstraint=eastwest;newEdgeStyle={&quot;curved&quot;:0,&quot;rounded&quot;:0};" vertex="1" parent="1">
          <mxGeometry x="380" y="510" width="10" height="40" as="geometry" />
        </mxCell>
        <mxCell id="q5gdYGpSEoozQd5RKPLv-26" value="Usunięcie &lt;i&gt;refresh token&lt;/i&gt;" style="html=1;align=left;spacingLeft=2;endArrow=block;rounded=0;edgeStyle=orthogonalEdgeStyle;curved=0;rounded=0;" edge="1" target="q5gdYGpSEoozQd5RKPLv-25" parent="1">
          <mxGeometry relative="1" as="geometry">
            <mxPoint x="385" y="490" as="sourcePoint" />
            <Array as="points">
              <mxPoint x="415" y="520" />
            </Array>
          </mxGeometry>
        </mxCell>
        <mxCell id="q5gdYGpSEoozQd5RKPLv-27" value="Zwrócenie statusu 204" style="html=1;verticalAlign=bottom;endArrow=open;dashed=1;endSize=8;curved=0;rounded=0;" edge="1" parent="1">
          <mxGeometry x="-0.0008" relative="1" as="geometry">
            <mxPoint x="375" y="550" as="sourcePoint" />
            <mxPoint x="150" y="550" as="targetPoint" />
            <mxPoint as="offset" />
          </mxGeometry>
        </mxCell>
        <mxCell id="q5gdYGpSEoozQd5RKPLv-28" value="Wylogowanie" style="shape=umlFrame;whiteSpace=wrap;html=1;pointerEvents=0;width=90;height=30;fillColor=#f8cecc;strokeColor=#b85450;" vertex="1" parent="1">
          <mxGeometry x="50" y="320" width="540" height="250" as="geometry" />
        </mxCell>
      </root>
    </mxGraphModel>
  </diagram>
</mxfile>
